<svg t="1671696959268" class="icon" viewBox="0 0 1024 1024" version="1.1" xmlns="http://www.w3.org/2000/svg" p-id="6051" width="16" height="16"><path d="M63.875796 510.842641" p-id="6052" fill="#bfbfbf"></path><path d="M887.358947 774.110673l-73.192999-85.398995 0-271.380804c0-156.456355-119.088282-285.582247-271.380804-301.593919L542.785144 104.480586c0-17.616216-14.295588-31.927153-31.927153-31.927153-17.631566 0-31.927153 14.310937-31.927153 31.927153l0 11.255345c-152.292522 16.012695-271.380804 145.137565-271.380804 301.593919l0 271.380804-73.192999 85.398995c-4.066619 4.723581-4.988618 11.395538-2.384303 17.054421 2.603291 5.658883 8.262174 9.29162 14.498202 9.29162l728.775138 0c6.236028 0 11.894911-3.632737 14.498202-9.29162C892.347564 785.506211 891.412262 778.834254 887.358947 774.110673zM207.550033 752.565984l47.89073-63.854307 0-271.380804c0-140.835585 114.581642-255.417227 255.417227-255.417227s255.417227 114.581642 255.417227 255.417227l0 271.380804 47.89073 63.854307L207.550033 752.565984z" p-id="6053" fill="#bfbfbf"></path><path d="M623.550609 836.870042c0.00307 0.167822 0.048095 0.332575 0.048095 0.499373 0 34.014698-52.68492 63.854307-112.74276 63.854307s-112.74276-29.839609-112.74276-63.854307c0-0.167822 0.045025-0.332575 0.048095-0.499373l-47.90301 0c0 0.169869-0.034792 0.330528-0.034792 0.499373 0 62.662155 70.559009 111.745037 160.63349 111.745037 90.075505 0 160.63349-49.082882 160.63349-111.745037 0-0.169869-0.032746-0.330528-0.034792-0.499373L623.550609 836.870042z" p-id="6054" fill="#bfbfbf"></path></svg>